<?xml version="1.0" encoding="UTF-8"?> <svg xmlns="http://www.w3.org/2000/svg" width="167" height="34" viewBox="0 0 167 34" fill="none"><path fill-rule="evenodd" clip-rule="evenodd" d="M23.7628 22.5576V3.1875H3.55919V22.5576L13.661 30.0334L23.7628 22.5576ZM26.9529 24.1633L13.661 34L0.369141 24.1633V0H26.9529V24.1633Z" fill="#01A09A"></path><path d="M13.1293 26.5625V5.3125H5.68589V21.25L13.1293 26.5625Z" fill="#01A09A"></path><path d="M51.939 6.14504H53.8697V24.855H51.489V12.2366L45.6825 24.855H44.2019L38.4099 12.2366V24.855H36.0293V6.14504H37.9599L44.9422 21.142L51.939 6.14504Z" fill="#181425"></path><path d="M60.6923 24.855H58.3116V8.52366H60.6923V24.855Z" fill="#181425"></path><path d="M63.2181 8.52366H75.9923V10.5977H70.7955V24.855H68.4149V10.5977H63.2181V8.52366Z" fill="#181425"></path><path d="M80.8988 16.5443H84.9197C85.8875 16.5443 86.6472 16.2735 87.1988 15.7321C87.7601 15.1809 88.0407 14.4606 88.0407 13.571C88.0407 12.6814 87.7601 11.9659 87.1988 11.4244C86.6472 10.8733 85.8875 10.5977 84.9197 10.5977H80.8988V16.5443ZM91.1617 24.855H88.4762L84.6149 18.6183H80.8988V24.855H78.5181V8.52366H84.9197C85.7327 8.52366 86.473 8.6542 87.1407 8.91527C87.8181 9.16667 88.3988 9.51959 88.8827 9.97405C89.3665 10.4285 89.744 10.9651 90.0149 11.584C90.2859 12.1931 90.4214 12.8555 90.4214 13.571C90.4214 14.5186 90.2423 15.2873 89.8843 15.8771C89.5262 16.4573 89.1294 16.9165 88.6939 17.255C88.181 17.6514 87.6149 17.956 86.9956 18.1687L91.1617 24.855Z" fill="#181425"></path><path d="M95.6036 20.9969L94.2682 24.855H91.7423L97.9843 8.52366H100.655L106.897 24.855H104.371L103.036 20.9969H95.6036ZM99.3198 10.8878L96.344 19.0679H102.296L99.3198 10.8878Z" fill="#181425"></path><path d="M108.233 11.0473C108.233 10.4092 108.383 9.79033 108.683 9.19084C108.983 8.58168 109.404 8.0402 109.946 7.56641C110.488 7.09262 111.131 6.71552 111.876 6.43511C112.621 6.14504 113.439 6 114.329 6C115.142 6 115.897 6.14987 116.594 6.44962C117.3 6.73969 117.915 7.13613 118.438 7.63893C118.97 8.14173 119.381 8.74122 119.671 9.4374C119.971 10.1336 120.121 10.8684 120.121 11.642H117.755C117.755 10.588 117.426 9.73232 116.768 9.07481C116.11 8.40763 115.297 8.07405 114.329 8.07405C113.778 8.07405 113.27 8.16107 112.805 8.33511C112.35 8.49949 111.959 8.72188 111.629 9.00229C111.31 9.27303 111.059 9.58728 110.875 9.94504C110.7 10.3028 110.613 10.6702 110.613 11.0473C110.613 11.8209 110.86 12.4204 111.354 12.8458C111.847 13.2712 112.462 13.629 113.197 13.9191C113.933 14.1995 114.731 14.4654 115.592 14.7168C116.454 14.9585 117.252 15.2824 117.988 15.6885C118.723 16.0947 119.338 16.6313 119.831 17.2985C120.325 17.956 120.571 18.8407 120.571 19.9527C120.571 20.6295 120.426 21.2725 120.136 21.8817C119.855 22.4812 119.444 23.013 118.902 23.4771C118.37 23.9412 117.717 24.3135 116.942 24.5939C116.168 24.8646 115.297 25 114.329 25C113.362 25 112.491 24.8646 111.717 24.5939C110.942 24.3135 110.284 23.9219 109.742 23.4191C109.21 22.9066 108.799 22.3071 108.509 21.6206C108.228 20.9244 108.088 20.1702 108.088 19.358H110.468C110.468 20.4893 110.792 21.3692 111.441 21.9977C112.099 22.6165 113.062 22.926 114.329 22.926C115.597 22.926 116.555 22.6407 117.204 22.0702C117.862 21.4901 118.191 20.7842 118.191 19.9527C118.191 19.1791 117.944 18.5796 117.45 18.1542C116.957 17.7288 116.342 17.3758 115.607 17.0954C114.871 16.8053 114.073 16.5394 113.212 16.2977C112.35 16.0463 111.552 15.7176 110.817 15.3115C110.091 14.9053 109.476 14.3735 108.973 13.716C108.479 13.0489 108.233 12.1593 108.233 11.0473Z" fill="#181425"></path><path d="M125.042 16.6893C125.042 17.5789 125.192 18.4056 125.492 19.1695C125.802 19.9333 126.218 20.5908 126.741 21.142C127.273 21.6931 127.873 22.1282 128.541 22.4473C129.218 22.7664 129.934 22.926 130.689 22.926C131.425 22.926 132.131 22.7664 132.809 22.4473C133.496 22.1282 134.101 21.6931 134.623 21.142C135.146 20.5908 135.562 19.9333 135.871 19.1695C136.181 18.4056 136.336 17.5789 136.336 16.6893C136.336 15.7997 136.181 14.973 135.871 14.2092C135.562 13.4453 135.146 12.7878 134.623 12.2366C134.101 11.6758 133.496 11.2407 132.809 10.9313C132.121 10.6122 131.415 10.4527 130.689 10.4527C129.934 10.4527 129.218 10.6122 128.541 10.9313C127.873 11.2407 127.273 11.6758 126.741 12.2366C126.218 12.7878 125.802 13.4453 125.492 14.2092C125.192 14.973 125.042 15.7997 125.042 16.6893ZM138.717 16.6893C138.717 17.8399 138.494 18.9181 138.049 19.9237C137.613 20.9293 137.028 21.8092 136.292 22.5634C135.567 23.3176 134.715 23.9122 133.738 24.3473C132.77 24.7824 131.754 25 130.689 25C129.615 25 128.589 24.7824 127.612 24.3473C126.644 23.9122 125.792 23.3176 125.057 22.5634C124.331 21.8092 123.75 20.9293 123.315 19.9237C122.88 18.9181 122.662 17.8399 122.662 16.6893C122.662 15.5387 122.88 14.4606 123.315 13.455C123.75 12.4397 124.331 11.555 125.057 10.8008C125.792 10.0466 126.644 9.45191 127.612 9.01679C128.589 8.58168 129.615 8.36412 130.689 8.36412C131.763 8.36412 132.784 8.58168 133.752 9.01679C134.72 9.45191 135.567 10.0466 136.292 10.8008C137.028 11.555 137.613 12.4397 138.049 13.455C138.494 14.4606 138.717 15.5387 138.717 16.6893Z" fill="#181425"></path><path d="M141.838 24.855V8.52366H152.551V10.5977H144.218V15.7901H151.055V17.8786H144.218V24.855H141.838Z" fill="#181425"></path><path d="M153.596 8.52366H166.37V10.5977H161.173V24.855H158.793V10.5977H153.596V8.52366Z" fill="#181425"></path></svg> 